<?xml version="1.0" standalone="no"?>
<!DOCTYPE svg PUBLIC "-//W3C//DTD SVG 20010904//EN"
 "http://www.w3.org/TR/2001/REC-SVG-20010904/DTD/svg10.dtd">
<svg version="1.0" xmlns="http://www.w3.org/2000/svg"
 width="1080.000000pt" height="1080.000000pt" viewBox="0 0 1080.000000 1080.000000"
 preserveAspectRatio="xMidYMid meet">

<g transform="translate(0.000000,1080.000000) scale(0.100000,-0.100000)"
fill="#000000" stroke="none">
<path d="M5440 9001 c-57 -12 -152 -60 -189 -94 -47 -45 -74 -91 -101 -169
-19 -56 -22 -82 -18 -155 2 -48 9 -97 15 -108 6 -11 16 -31 22 -45 33 -70 64
-107 130 -151 136 -89 375 -91 488 -2 20 15 41 31 46 34 6 4 -3 25 -19 48 -28
40 -56 52 -70 30 -3 -6 -30 -22 -58 -35 -40 -19 -68 -24 -131 -24 -151 0 -262
80 -290 209 l-7 34 228 -7 c126 -3 271 -9 322 -12 l92 -6 0 77 c0 171 -95 308
-250 359 -60 20 -160 28 -210 17z m173 -125 c80 -29 143 -102 158 -184 8 -43
-5 -51 -71 -42 -30 4 -139 11 -242 15 -202 8 -198 6 -177 62 27 72 94 137 159
154 44 11 134 9 173 -5z"/>
<path d="M4493 8888 c-63 -25 -127 -77 -164 -136 l-28 -44 -10 39 c-6 21 -11
44 -11 51 0 13 -47 16 -99 6 -37 -8 -38 -17 -12 -105 25 -87 40 -146 51 -199
6 -25 14 -54 19 -65 5 -11 14 -46 21 -77 6 -32 16 -60 21 -63 5 -4 9 -21 9
-40 0 -19 5 -46 11 -62 6 -15 17 -53 24 -83 16 -67 40 -159 56 -220 7 -25 16
-62 21 -82 8 -33 13 -38 37 -38 35 0 101 26 101 40 0 6 -4 18 -9 28 -5 9 -14
42 -20 72 -22 107 -31 142 -46 186 -8 25 -15 53 -15 64 0 18 3 17 56 -7 51
-23 64 -25 157 -21 73 4 113 10 142 24 141 68 209 154 226 283 25 205 -58 368
-231 453 -53 26 -237 24 -307 -4z m267 -126 c45 -24 62 -41 94 -93 36 -58 40
-72 44 -145 4 -72 1 -89 -20 -136 -58 -125 -221 -186 -348 -130 -93 40 -170
162 -170 269 0 117 83 226 198 259 65 18 137 10 202 -24z"/>
<path d="M6167 8868 c-9 -24 -19 -61 -23 -83 -4 -22 -11 -45 -15 -51 -5 -6
-12 -33 -15 -60 -4 -27 -13 -58 -20 -69 -8 -11 -14 -28 -14 -38 0 -10 -9 -51
-20 -90 -12 -40 -28 -97 -36 -127 -9 -30 -23 -78 -31 -107 -9 -28 -13 -58 -10
-65 5 -15 70 -38 106 -38 13 0 21 6 21 17 0 10 6 35 14 58 8 22 24 76 36 120
57 216 65 237 106 291 14 18 46 45 71 60 42 24 53 26 126 22 l80 -5 18 43 c31
69 15 84 -97 84 -62 0 -124 -19 -157 -48 -26 -23 -33 -7 -19 44 7 25 10 49 7
54 -6 10 -70 30 -96 30 -10 0 -22 -17 -32 -42z"/>
<path d="M3605 8519 c-27 -11 -57 -27 -66 -35 -8 -8 -21 -14 -27 -14 -25 0
-114 -102 -143 -165 -28 -59 -31 -74 -30 -164 0 -108 12 -147 71 -235 119
-175 342 -217 540 -100 85 50 118 92 181 228 22 47 17 172 -9 240 -28 73 -80
145 -135 190 -76 60 -102 69 -222 73 -94 2 -117 0 -160 -18z m257 -132 c58
-34 80 -59 122 -141 46 -87 47 -137 7 -221 -32 -68 -72 -107 -146 -141 -70
-33 -134 -32 -210 5 -70 33 -102 65 -140 139 -50 95 -35 228 33 306 24 26 84
63 123 75 58 18 162 7 211 -22z"/>
<path d="M2743 8260 c-24 -23 -43 -48 -43 -57 0 -8 66 -83 148 -166 81 -83
154 -158 162 -166 8 -9 85 -93 172 -186 86 -94 178 -192 206 -218 l49 -48 34
28 c73 61 75 50 -19 149 -47 49 -133 139 -192 199 -58 61 -148 155 -198 210
-50 55 -133 144 -184 198 l-93 97 -42 -40z"/>
<path d="M7988 8122 c-31 -26 -116 -96 -188 -157 -129 -108 -157 -131 -394
-325 -116 -95 -137 -126 -103 -147 8 -4 42 -44 78 -89 114 -144 255 -308 296
-345 55 -50 145 -92 207 -97 106 -8 228 84 260 196 16 57 14 114 -5 137 -17
22 9 30 92 30 69 0 91 4 106 18 11 9 24 17 29 17 11 1 51 36 77 67 10 11 25
46 33 76 29 113 -20 226 -175 405 -30 35 -73 87 -95 116 -76 97 -123 146 -142
146 -11 -1 -44 -22 -76 -48z m116 -145 c11 -12 29 -34 38 -49 9 -14 43 -56 76
-94 118 -139 146 -205 123 -290 -14 -50 -47 -80 -104 -95 -76 -21 -118 -2
-213 95 -82 83 -204 232 -204 247 0 4 30 33 68 63 37 30 90 75 117 100 28 25
56 46 64 46 7 0 23 -10 35 -23z m-363 -279 c9 -7 33 -35 55 -63 21 -27 66 -82
100 -120 34 -39 78 -100 98 -136 67 -121 42 -215 -69 -264 -47 -21 -52 -21
-95 -7 -60 20 -118 68 -187 155 -32 40 -86 105 -121 144 -48 55 -62 77 -57 93
3 11 11 20 16 20 5 0 44 31 86 68 86 75 145 122 154 122 3 0 12 -6 20 -12z"/>
<path d="M6781 7971 c-46 -65 -14 -140 64 -148 39 -5 47 -2 75 25 37 37 40 86
9 126 -18 22 -28 26 -74 26 -48 0 -56 -3 -74 -29z"/>
<path d="M2666 7640 c-26 -11 -68 -34 -93 -51 -49 -34 -130 -137 -139 -178 -4
-14 -13 -48 -22 -74 -40 -128 38 -301 177 -394 82 -55 126 -68 231 -68 74 1
93 5 150 32 152 73 265 250 258 405 -3 58 -5 63 -27 66 -13 2 -39 1 -57 -3
l-34 -6 0 -67 c0 -53 -5 -78 -26 -117 -57 -108 -103 -148 -207 -181 -54 -17
-60 -17 -112 0 -30 9 -57 21 -60 26 -3 5 24 51 60 102 35 51 79 113 96 138 17
25 67 96 111 158 58 82 78 117 73 132 -4 12 -36 34 -83 57 -67 32 -88 37 -162
40 -68 2 -95 -1 -134 -17z m225 -116 c12 -7 11 -51 -1 -59 -13 -8 -90 -112
-90 -120 0 -4 -16 -25 -35 -48 -19 -22 -35 -46 -35 -53 0 -7 -4 -14 -8 -16 -4
-1 -30 -34 -56 -71 -47 -67 -49 -68 -69 -50 -49 44 -70 95 -71 168 0 73 12
107 61 171 27 37 89 80 124 87 28 6 167 0 180 -9z"/>
<path d="M8432 7020 c-12 -16 -22 -33 -22 -37 1 -4 18 -20 40 -35 52 -36 112
-129 138 -214 l22 -69 -25 -50 c-24 -51 -62 -87 -110 -105 -25 -10 -27 -7 -56
58 -17 37 -35 78 -41 92 -47 117 -101 202 -146 234 -34 23 -48 26 -119 26 -76
0 -84 -2 -125 -33 -24 -18 -53 -52 -66 -77 -38 -73 -24 -205 29 -290 5 -8 13
-24 18 -35 13 -28 59 -69 111 -99 l45 -26 -42 -16 c-46 -18 -53 -35 -28 -68 8
-11 15 -28 15 -38 0 -28 23 -31 72 -10 23 10 63 26 88 36 25 10 59 24 75 31
17 7 55 22 85 35 30 12 69 28 85 35 17 7 49 21 73 31 65 27 146 111 162 168
28 101 -7 243 -91 366 -81 118 -144 149 -187 90z m-228 -250 c30 -27 54 -67
86 -145 5 -11 17 -40 29 -65 40 -90 40 -95 -22 -124 -29 -14 -57 -26 -62 -26
-4 0 -36 14 -70 30 -186 89 -207 356 -28 359 22 1 43 -8 67 -29z"/>
<path d="M2176 6991 c-35 -67 -31 -73 172 -262 103 -96 212 -199 242 -229 l55
-54 -60 -7 c-33 -4 -104 -12 -157 -18 -53 -6 -150 -11 -215 -11 -65 0 -147 -3
-183 -6 l-66 -7 -21 -51 c-16 -39 -18 -54 -10 -62 14 -13 362 -1 463 16 33 5
103 10 155 11 52 1 120 4 153 8 58 6 59 6 77 51 31 78 27 89 -58 170 -43 40
-119 111 -168 159 -184 176 -338 316 -351 319 -7 2 -20 -10 -28 -27z"/>
<path d="M8470 6185 c-164 -33 -268 -130 -310 -288 -24 -90 -24 -124 -1 -212
31 -116 80 -188 153 -226 l38 -19 25 51 26 51 -41 35 c-58 50 -86 99 -94 163
-14 117 31 215 129 275 46 28 54 30 154 30 95 0 110 -3 146 -25 76 -47 113
-105 122 -190 8 -84 -3 -140 -41 -197 l-33 -51 39 -43 40 -44 38 42 c97 110
107 299 25 460 -23 45 -107 128 -153 152 -33 17 -175 54 -192 50 -3 -1 -34 -7
-70 -14z"/>
<path d="M2133 6082 c-34 -9 -68 -23 -75 -29 -6 -7 -20 -13 -29 -13 -27 0
-119 -99 -147 -159 -24 -51 -26 -68 -27 -176 0 -118 1 -121 34 -183 64 -118
173 -186 316 -198 170 -14 280 38 372 173 13 19 23 37 23 42 0 4 8 23 17 42
13 27 17 61 17 164 -1 116 -3 135 -24 175 -27 52 -59 90 -74 90 -6 0 -26 -13
-44 -28 l-33 -27 36 -73 c34 -67 36 -79 32 -140 -7 -102 -27 -156 -77 -207
-47 -48 -85 -69 -142 -79 -34 -6 -37 -5 -43 24 -4 16 -2 45 4 62 6 18 15 115
21 214 5 100 15 214 21 253 7 39 9 74 6 77 -14 14 -126 12 -184 -4z m71 -120
c4 -7 -19 -353 -31 -455 -5 -48 -5 -48 -37 -41 -33 7 -90 44 -119 78 -41 49
-57 94 -57 164 0 86 26 149 78 193 55 46 153 82 166 61z"/>
<path d="M8186 5352 c-3 -5 -8 -31 -12 -59 -8 -63 0 -69 117 -86 75 -10 83
-14 110 -48 53 -67 100 -142 95 -153 -2 -6 -62 -44 -132 -85 -71 -41 -131 -77
-134 -80 -3 -3 -32 -20 -65 -38 -65 -34 -63 -32 -82 -156 l-5 -38 58 30 c33
17 66 35 74 41 34 21 237 138 300 172 l68 38 33 -43 c18 -23 37 -46 43 -52 6
-5 28 -35 49 -65 79 -117 125 -175 139 -178 11 -2 17 9 22 35 13 84 9 100 -61
201 -104 150 -243 361 -243 368 0 11 259 -19 389 -45 29 -6 71 -11 92 -11 20
0 65 -7 98 -16 90 -23 101 -18 117 41 19 71 18 72 -28 78 -24 4 -63 11 -88 16
-25 6 -66 10 -91 11 -25 0 -59 5 -75 10 -27 9 -111 22 -334 50 -47 6 -106 16
-132 21 -25 6 -86 14 -135 19 -48 5 -104 14 -123 19 -42 13 -57 14 -64 3z"/>
<path d="M2135 5191 c-153 -21 -294 -107 -370 -226 -55 -86 -75 -161 -75 -281
0 -107 3 -124 61 -344 17 -63 35 -140 40 -170 13 -69 23 -82 56 -69 14 5 55
16 92 24 36 9 93 22 126 30 33 8 91 21 129 30 38 9 77 20 87 25 10 6 29 10 42
10 14 0 47 7 73 15 74 22 260 68 352 86 52 11 52 11 52 49 0 21 -7 60 -15 86
-14 48 -33 121 -60 234 -30 126 -38 148 -72 218 -99 202 -302 313 -518 283z
m210 -161 c41 -16 79 -41 121 -82 57 -54 67 -72 119 -193 12 -29 23 -76 46
-195 6 -30 15 -59 20 -64 30 -33 -12 -62 -121 -85 -30 -6 -75 -16 -100 -21
-42 -9 -96 -23 -215 -55 -91 -24 -317 -76 -320 -73 -1 2 -12 46 -25 98 -12 52
-29 118 -38 145 -11 34 -16 86 -16 160 0 108 0 111 38 183 92 173 307 253 491
182z"/>
<path d="M7990 4186 c-68 -20 -124 -54 -174 -105 -93 -96 -162 -279 -137 -363
14 -46 24 -51 76 -40 l39 8 1 69 c2 169 139 315 295 315 40 0 100 -18 100 -29
0 -4 -12 -27 -28 -52 -15 -24 -33 -53 -39 -64 -7 -11 -47 -77 -90 -147 -43
-70 -85 -140 -93 -155 -9 -16 -28 -46 -43 -68 -15 -22 -27 -45 -27 -51 0 -17
57 -48 134 -74 53 -18 81 -22 141 -18 42 3 81 10 88 17 6 6 18 11 27 11 8 0
39 17 69 38 100 69 171 205 171 327 0 60 -26 155 -49 178 -6 6 -11 15 -11 20
0 38 -136 147 -220 176 -54 19 -179 22 -230 7z m334 -238 c20 -23 41 -60 47
-82 16 -59 5 -160 -22 -199 -66 -96 -119 -129 -208 -131 -76 -1 -121 9 -121
27 1 6 16 37 35 67 19 30 47 77 62 103 15 27 35 61 43 75 9 15 29 47 45 72 15
25 38 60 49 77 12 18 24 33 28 33 3 0 23 -19 42 -42z"/>
<path d="M2875 3824 c-27 -9 -57 -20 -65 -25 -8 -5 -28 -15 -45 -23 -45 -21
-141 -121 -172 -179 -26 -48 -28 -61 -28 -167 0 -107 2 -119 28 -168 65 -124
151 -186 300 -217 25 -5 27 -8 15 -22 -7 -9 -44 -41 -83 -71 -108 -86 -215
-183 -215 -196 1 -16 68 -86 83 -86 10 0 130 97 147 119 3 4 28 24 55 46 28
22 84 69 125 105 41 36 113 98 160 137 47 40 99 85 116 100 17 15 72 62 123
103 50 41 91 82 91 90 -1 18 -38 62 -65 78 -16 8 -26 5 -53 -19 -18 -16 -37
-29 -42 -29 -6 0 -10 33 -10 75 0 83 -13 120 -71 200 -48 67 -131 123 -216
146 -80 22 -111 23 -178 3z m182 -139 c63 -19 135 -85 163 -151 27 -62 27
-156 0 -209 -34 -68 -112 -139 -178 -164 -76 -27 -119 -27 -184 3 -65 29 -118
80 -148 141 -19 39 -22 58 -18 123 5 90 28 134 104 200 75 67 163 86 261 57z"/>
<path d="M7476 3585 c-25 -20 -46 -39 -46 -42 0 -7 56 -69 171 -190 49 -51
105 -116 125 -145 34 -47 38 -61 42 -129 4 -66 1 -81 -20 -121 -47 -88 -139
-146 -223 -140 -77 6 -126 48 -334 285 -57 64 -107 117 -113 117 -17 0 -88
-65 -88 -80 1 -8 17 -33 38 -56 20 -23 88 -98 150 -167 179 -200 237 -240 347
-240 146 -1 335 163 335 290 0 21 3 48 6 61 7 23 8 23 48 -17 l41 -41 45 39
c44 38 45 40 30 64 -8 14 -47 58 -85 99 -39 40 -101 109 -139 153 -104 120
-267 295 -276 295 -4 0 -28 -16 -54 -35z"/>
<path d="M3558 3204 c-10 -9 -10 -66 -2 -88 5 -12 20 -16 58 -16 69 0 138 -24
206 -71 105 -73 159 -219 112 -306 l-17 -33 -135 86 c-132 84 -260 167 -349
226 l-44 29 -22 -21 c-38 -35 -85 -170 -85 -240 0 -25 9 -72 20 -104 40 -113
95 -174 205 -230 66 -35 73 -36 175 -36 72 0 112 4 125 14 11 7 31 16 45 19
32 8 146 120 171 169 69 135 71 246 5 376 -33 65 -130 153 -213 193 -57 27
-82 33 -158 37 -49 2 -93 1 -97 -4z m-59 -360 c31 -20 68 -45 83 -55 15 -11
30 -19 33 -19 3 0 27 -16 54 -35 26 -19 51 -35 54 -35 3 0 35 -21 71 -46 71
-49 74 -63 22 -97 -34 -23 -126 -57 -152 -57 -39 0 -160 56 -193 89 -47 47
-64 94 -64 178 0 74 11 113 31 113 3 0 30 -16 61 -36z"/>
<path d="M6675 2978 c-22 -5 -73 -25 -113 -45 -80 -39 -125 -85 -162 -167 -23
-53 -36 -52 -55 4 -5 16 -13 30 -17 30 -52 1 -69 -3 -91 -20 l-26 -20 26 -58
c39 -88 82 -181 114 -247 16 -33 29 -63 29 -67 0 -4 21 -51 46 -105 25 -54 54
-116 64 -138 10 -22 34 -75 54 -118 20 -42 36 -79 36 -82 0 -2 18 -42 40 -89
l40 -84 37 14 c59 23 89 49 76 66 -6 7 -32 62 -58 123 -26 60 -58 128 -70 151
-12 23 -25 53 -29 67 l-6 26 46 -16 c57 -19 186 -14 229 9 17 9 37 19 45 23
17 7 42 22 82 49 62 41 138 199 138 286 0 88 -75 256 -142 316 -44 40 -104 72
-167 88 -68 18 -105 18 -166 4z m111 -124 c72 -21 142 -70 171 -119 27 -47 26
-44 48 -114 16 -51 16 -58 -2 -119 -55 -194 -288 -267 -440 -138 -72 61 -115
190 -94 285 21 100 76 158 185 198 75 27 67 26 132 7z"/>
<path d="M4462 2787 c-5 -7 -27 -45 -48 -85 -43 -81 -83 -152 -164 -299 -80
-145 -118 -215 -129 -240 -6 -12 -21 -39 -34 -60 -13 -21 -43 -73 -66 -115
-23 -43 -49 -91 -59 -107 -9 -16 -14 -32 -11 -36 4 -3 31 -10 60 -15 51 -8 55
-7 77 18 12 15 25 36 28 46 4 10 20 42 36 70 45 77 168 296 168 301 0 2 23 42
50 90 28 48 50 88 50 90 0 14 89 155 93 148 4 -6 9 -41 13 -79 4 -38 13 -86
20 -108 8 -21 14 -63 14 -93 0 -30 6 -85 14 -122 14 -63 20 -104 50 -354 7
-59 15 -110 18 -112 6 -6 129 -37 132 -33 2 2 10 17 18 33 8 17 42 77 75 135
33 58 72 128 88 155 43 78 105 188 115 205 6 8 17 29 25 45 9 17 21 39 28 50
7 11 28 48 47 83 19 34 39 61 45 59 5 -2 13 -42 17 -88 4 -46 12 -102 18 -124
5 -22 14 -84 19 -137 5 -53 14 -106 20 -117 6 -11 11 -46 12 -78 0 -32 5 -80
10 -108 6 -27 14 -85 19 -128 4 -43 10 -79 12 -81 8 -5 133 -35 135 -32 5 5
-27 268 -34 279 -3 5 -10 48 -14 94 -4 46 -12 105 -18 131 -5 26 -15 90 -21
142 -37 306 -58 418 -81 430 -9 5 -42 13 -73 18 -67 11 -47 35 -191 -233 -11
-22 -33 -58 -47 -80 -13 -22 -46 -80 -72 -130 -91 -171 -163 -290 -177 -290
-10 0 -17 28 -25 105 -6 58 -16 128 -22 155 -6 28 -16 91 -22 140 -20 166 -38
290 -49 335 -6 25 -12 58 -13 74 -3 23 -10 30 -43 41 -67 21 -102 25 -113 12z"/>
<path d="M5650 2693 c-20 -8 -33 -22 -55 -60 -16 -27 -17 -35 -5 -63 30 -73
93 -91 149 -44 27 22 31 33 31 73 0 37 -5 52 -23 69 -24 23 -72 35 -97 25z"/>
</g>
</svg>
